<svg width="512" height="512" viewBox="0 0 512 512" fill="none" xmlns="http://www.w3.org/2000/svg">
<path d="M66 0V512H446V0H66ZM416 482H96V30H416V482Z" fill="#94A1B2"/>
<path d="M373.34 272.5H138.67V302.5H373.34V272.5Z" fill="#94A1B2"/>
<path d="M373.34 336.5H138.67V366.5H373.34V336.5Z" fill="#94A1B2"/>
<path d="M373.34 400.5H138.67V430.5H373.34V400.5Z" fill="#94A1B2"/>
<path d="M373.33 145.51H309.33V175.51H373.33V145.51Z" fill="#94A1B2"/>
<path d="M373.33 209.51H309.33V239.51H373.33V209.51Z" fill="#94A1B2"/>
<path d="M373.33 82.52H309.33V112.52H373.33V82.52Z" fill="#94A1B2"/>
<path d="M246.954 164.897C254.797 156.041 259.573 144.409 259.573 131.676C259.573 104.011 237.066 81.5031 209.4 81.5031C181.734 81.5031 159.227 104.011 159.227 131.676C159.227 144.408 164.003 156.041 171.846 164.897C152.076 177.397 138.909 199.437 138.909 224.507V239.507H279.891V224.507C279.891 199.437 266.724 177.397 246.954 164.897ZM209.399 111.502C220.523 111.502 229.572 120.552 229.572 131.675C229.572 142.799 220.522 151.848 209.399 151.848C198.276 151.848 189.226 142.798 189.226 131.675C189.226 120.552 198.276 111.502 209.399 111.502ZM171.787 209.507C177.761 194.585 192.37 184.016 209.399 184.016C226.429 184.016 241.038 194.584 247.01 209.507H171.787Z" fill="#94A1B2"/>
</svg>
