<svg width="512" height="487" viewBox="0 0 512 487" fill="none" xmlns="http://www.w3.org/2000/svg">
<path d="M503.401 216.208L460.148 176.798V46.1145C460.148 37.7995 453.407 31.0575 445.091 31.0575H340.976C332.661 31.0575 325.919 37.7985 325.919 46.1145V54.4885L273.683 6.8915C263.6 -2.2975 248.395 -2.2965 238.316 6.8905L8.59785 216.209C0.521848 223.569 -2.14715 234.909 1.79885 245.098C5.74585 255.287 15.3558 261.87 26.2828 261.87H62.9718V471.591C62.9718 479.906 69.7128 486.648 78.0288 486.648H203.942C212.257 486.648 218.999 479.907 218.999 471.591V344.255H293V471.592C293 479.907 299.741 486.65 308.057 486.65H433.965C442.28 486.65 449.022 479.908 449.021 471.592V261.871H485.718C496.644 261.871 506.255 255.287 510.202 245.099C514.147 234.909 511.479 223.569 503.401 216.208ZM433.965 231.757C425.65 231.757 418.908 238.498 418.908 246.814V456.535H323.115V329.198C323.115 320.883 316.373 314.141 308.058 314.141H203.942C195.627 314.141 188.885 320.882 188.885 329.198V456.535H93.0848V246.814C93.0848 238.499 86.3438 231.757 78.0278 231.757H36.2448L256.001 31.5175L330.837 99.7085C335.245 103.725 341.608 104.76 347.061 102.353C352.515 99.9425 356.034 94.5405 356.034 88.5785V61.1715H430.036V183.447C430.036 187.684 431.82 191.723 434.952 194.577L475.755 231.757H433.965Z" fill="#94A1B2"/>
</svg>
