<svg width="512" height="512" viewBox="0 0 512 512" fill="none" xmlns="http://www.w3.org/2000/svg">
<path d="M467 182H452V45C452 20.187 431.813 0 407 0H45C20.187 0 0 20.187 0 45V317C0 341.813 20.187 362 45 362H155.73L136.584 400.292C134.259 404.942 134.507 410.464 137.24 414.886C139.973 419.308 144.802 422 150 422H301.999H302V467C302 491.813 322.187 512 347 512H467C491.813 512 512 491.813 512 467V227C512 202.187 491.813 182 467 182ZM174.271 392L189.271 362H262.73L277.729 392H174.271ZM302 373.46L296.27 362H302V373.46ZM302 332H45C36.729 332 30 325.271 30 317V302H302V332ZM302 227V272H30V45C30 36.729 36.729 30 45 30H407C415.271 30 422 36.729 422 45V182H347C322.187 182 302 202.187 302 227ZM482 467C482 475.271 475.271 482 467 482H347C338.729 482 332 475.271 332 467V452H482V467ZM482 422H332V272H482V422ZM482 242H332V227C332 218.729 338.729 212 347 212H467C475.271 212 482 218.729 482 227V242Z" fill="#7F5AF0"/>
</svg>
