<svg width="512" height="512" viewBox="0 0 512 512" fill="none" xmlns="http://www.w3.org/2000/svg">
<path d="M497.094 91.0039C497.062 91.0039 497.031 91 497 91H361V76C361 51.1875 340.812 31 316 31H196C171.188 31 151 51.1875 151 76V91H15C6.64844 91 0 97.8438 0 106V436C0 460.812 20.1875 481 45 481H467C491.812 481 512 460.812 512 436V106.316C512 106.297 512 106.277 512 106.258C511.426 96.4063 505.367 91.0586 497.094 91.0039V91.0039ZM181 76C181 67.7305 187.73 61 196 61H316C324.27 61 331 67.7305 331 76V91H181V76ZM476.188 121L429.605 260.742C427.562 266.879 421.844 271 415.379 271H331V256C331 247.715 324.285 241 316 241H196C187.715 241 181 247.715 181 256V271H96.6211C90.1562 271 84.4375 266.879 82.3945 260.742L35.8125 121H476.188ZM301 271V301H211V271H301ZM482 436C482 444.27 475.27 451 467 451H45C36.7305 451 30 444.27 30 436V198.434L53.9336 270.23C60.0664 288.637 77.2227 301 96.6211 301H181V316C181 324.285 187.715 331 196 331H316C324.285 331 331 324.285 331 316V301H415.379C434.777 301 451.934 288.637 458.066 270.23L482 198.434V436Z" fill="#94A1B2"/>
</svg>
