<svg width="512" height="512" viewBox="0 0 512 512" fill="none" xmlns="http://www.w3.org/2000/svg">
<g clip-path="url(#clip0)">
<path d="M485.884 49.597H276.061L259.212 32.749C255.539 29.077 250.645 27.054 245.431 27.054C240.217 27.054 235.323 29.077 231.636 32.763L230.079 34.326C223.42 30.744 216.457 27.858 209.253 25.693V23.477C209.253 12.737 200.516 4 189.775 4H163.189C152.45 4 143.712 12.737 143.712 23.477V25.693C136.508 27.858 129.544 30.745 122.886 34.326L121.316 32.749C117.643 29.076 112.749 27.053 107.534 27.053C102.32 27.053 97.426 29.076 93.753 32.748L76.906 49.597H26.116C11.716 49.597 0 61.313 0 75.713V370.403C0 384.803 11.716 396.519 26.116 396.519H171.678L151.523 437.381H135.127C115.657 437.381 99.817 453.22 99.817 472.69V498C99.817 503.523 104.295 508 109.817 508H358.031H473.2C494.595 508 512 488.787 512 465.171V226.151V75.713C512 61.313 500.284 49.597 485.884 49.597V49.597ZM85.354 113.694C87.705 103.28 91.791 93.427 97.498 84.409C99.996 80.463 99.43 75.313 96.135 72.004L89.472 65.315L107.534 47.253L114.167 53.914C117.475 57.234 122.643 57.813 126.602 55.307C135.67 49.567 145.526 45.483 155.893 43.168C160.463 42.147 163.713 38.091 163.713 33.408V24H189.253V33.408C189.253 38.091 192.503 42.147 197.073 43.168C207.44 45.483 217.295 49.567 226.363 55.307C230.323 57.813 235.491 57.234 238.797 53.914L245.432 47.253L263.494 65.315L256.831 72.004C253.535 75.313 252.969 80.463 255.467 84.409C261.174 93.427 265.26 103.28 267.611 113.694C268.64 118.254 272.691 121.492 277.366 121.492H286.774V147.032H277.366C272.691 147.032 268.64 150.27 267.611 154.83C265.254 165.273 261.168 175.136 255.467 184.143C252.969 188.089 253.535 193.239 256.831 196.548L263.479 203.223L245.431 221.272L238.783 214.624C235.474 211.316 230.316 210.744 226.363 213.246C217.296 218.985 207.441 223.07 197.073 225.385C192.503 226.406 189.253 230.462 189.253 235.145V244.552H163.713V235.145C163.713 230.462 160.463 226.406 155.893 225.385C145.525 223.07 135.669 218.986 126.602 213.246C122.65 210.745 117.492 211.317 114.182 214.625L107.535 221.272L89.487 203.223L96.135 196.548C99.43 193.239 99.996 188.09 97.498 184.143C91.798 175.136 87.712 165.273 85.354 154.83C84.325 150.27 80.274 147.032 75.599 147.032H66.192V121.492H75.6C80.274 121.492 84.325 118.254 85.354 113.694V113.694ZM20 370.403V348.54H319.232V376.52H26.116C22.744 376.52 20 373.776 20 370.403V370.403ZM193.98 396.52H319.233V437.382H173.825L193.98 396.52ZM119.818 472.69C119.818 464.249 126.686 457.381 135.128 457.381H157.691C157.705 457.381 157.72 457.383 157.734 457.383C157.746 457.383 157.757 457.381 157.769 457.381H319.232V465.171C319.232 473.559 321.437 481.386 325.227 488H119.817V472.69H119.818ZM492 465.171C492 477.546 483.392 488 473.201 488H358.032C347.842 488 339.232 477.546 339.232 465.171V226.151C339.232 213.776 347.841 203.322 358.032 203.322H368.319V225.81C368.319 236.753 377.234 245.656 388.193 245.656H443.039C453.998 245.656 462.913 236.753 462.913 225.81V203.322H473.201C483.391 203.322 492 213.776 492 226.151V465.171ZM388.319 225.656V203.323H442.913V225.656H388.319ZM492 188.703C486.427 185.28 480.018 183.323 473.201 183.323H358.032C336.637 183.323 319.232 202.536 319.232 226.152V328.54H20V75.713C20 72.398 22.801 69.597 26.116 69.597H69.769C70.544 73.079 72.26 76.387 74.955 79.081L76.535 80.667C72.964 87.308 70.075 94.272 67.897 101.492H65.697C54.942 101.492 46.192 110.242 46.192 120.997V147.555C46.192 158.295 54.942 167.032 65.697 167.032H67.896C70.076 174.268 72.965 181.242 76.536 187.885L74.97 189.457C67.379 197.049 67.379 209.401 74.97 216.991L93.753 235.775C101.354 243.375 113.718 243.374 121.316 235.775L122.872 234.219C129.534 237.803 136.504 240.693 143.713 242.86V245.076C143.713 255.815 152.45 264.553 163.19 264.553H189.776C200.516 264.553 209.254 255.816 209.254 245.076V242.86C216.463 240.693 223.432 237.804 230.094 234.219L231.651 235.776C239.249 243.373 251.613 243.375 259.214 235.776L277.997 216.993C285.588 209.402 285.588 197.05 278.011 189.472L276.431 187.885C280 181.242 282.89 174.269 285.07 167.033H287.269C298.025 167.033 306.775 158.296 306.775 147.556V120.998C306.775 110.243 298.025 101.493 287.269 101.493H285.069C282.891 94.273 280.003 87.309 276.431 80.668L277.997 79.096C280.697 76.396 282.418 73.083 283.193 69.597H485.885C489.2 69.597 492.001 72.398 492.001 75.713V188.703H492Z" fill="#7F5AF0"/>
<path d="M176.469 203.946C214.901 203.946 246.167 172.692 246.167 134.276C246.167 95.86 214.9 64.606 176.469 64.606C138.053 64.606 106.799 95.86 106.799 134.276C106.799 172.692 138.053 203.946 176.469 203.946V203.946ZM176.469 84.606C203.872 84.606 226.167 106.888 226.167 134.276C226.167 161.664 203.872 183.946 176.469 183.946C149.081 183.946 126.799 161.664 126.799 134.276C126.799 106.888 149.081 84.606 176.469 84.606V84.606Z" fill="#7F5AF0"/>
<path d="M502 457.381H460.574C455.052 457.381 450.574 452.904 450.574 447.381C450.574 441.858 455.052 437.381 460.574 437.381H502C507.522 437.381 512 441.858 512 447.381C512 452.904 507.522 457.381 502 457.381ZM370.658 457.381H329.232C323.71 457.381 319.232 452.904 319.232 447.381C319.232 441.858 323.71 437.381 329.232 437.381H370.658C376.18 437.381 380.658 441.858 380.658 447.381C380.658 452.904 376.181 457.381 370.658 457.381Z" fill="#7F5AF0"/>
<path d="M415.603 457.381C410.081 457.381 405.588 452.904 405.588 447.381C405.588 441.858 410.051 437.381 415.573 437.381H415.602C421.124 437.381 425.602 441.858 425.602 447.381C425.602 452.904 421.125 457.381 415.603 457.381Z" fill="#7F5AF0"/>
</g>
<defs>
<clipPath id="clip0">
<rect width="512" height="512" fill="white"/>
</clipPath>
</defs>
</svg>
